inDegrees=no
num_controls=7
num_derivatives=13
num_iterations=98
num_multipliers=7
num_parameters=0
num_slacks=7
num_states=26
objective=0.477827
objective_accelerations=0.043411
objective_balance=0.003854
objective_effort=0.040279
objective_height=0.384579
objective_ligament=0.005704
solver_duration=1249.554245
status=Solve_Succeeded
success=true
DataType=double
version=3
OpenSimVersion=4.5
endheader
time	/jointset/ground_pelvis/pelvis_tilt/value	/jointset/ground_pelvis/pelvis_tx/value	/jointset/ground_pelvis/pelvis_ty/value	/jointset/hip_l/hip_flexion_l/value	/jointset/hip_l/hip_adduction_l/value	/jointset/hip_l/hip_rotation_l/value	/jointset/back/lumbar_extension/value	/jointset/patellofemoral_l/patellar_flexion_l/value	/jointset/knee_l/knee_flexion_l/value	/jointset/knee_l/knee_adduction_l/value	/jointset/knee_l/knee_rotation_l/value	/jointset/ankle_l/ankle_angle_l/value	/jointset/subtalar_l/subtalar_angle_l/value	/jointset/ground_pelvis/pelvis_tilt/speed	/jointset/ground_pelvis/pelvis_tx/speed	/jointset/ground_pelvis/pelvis_ty/speed	/jointset/hip_l/hip_flexion_l/speed	/jointset/hip_l/hip_adduction_l/speed	/jointset/hip_l/hip_rotation_l/speed	/jointset/back/lumbar_extension/speed	/jointset/patellofemoral_l/patellar_flexion_l/speed	/jointset/knee_l/knee_flexion_l/speed	/jointset/knee_l/knee_adduction_l/speed	/jointset/knee_l/knee_rotation_l/speed	/jointset/ankle_l/ankle_angle_l/speed	/jointset/subtalar_l/subtalar_angle_l/speed	/forceset/tau_hip_flexion_l	/forceset/tau_hip_adduction_l	/forceset/tau_hip_rotation_l	/forceset/tau_knee_flexion_l	/forceset/tau_ankle_angle_l	/forceset/tau_subtalar_angle_l	/forceset/tau_lumbar_extension	lambda_cid13_p0	lambda_cid13_p1	lambda_cid13_p2	lambda_cid13_p3	lambda_cid13_p4	lambda_cid13_p5	lambda_cid14_p0	/jointset/ground_pelvis/pelvis_tilt/accel	/jointset/ground_pelvis/pelvis_tx/accel	/jointset/ground_pelvis/pelvis_ty/accel	/jointset/hip_l/hip_flexion_l/accel	/jointset/hip_l/hip_adduction_l/accel	/jointset/hip_l/hip_rotation_l/accel	/jointset/back/lumbar_extension/accel	/jointset/patellofemoral_l/patellar_flexion_l/accel	/jointset/knee_l/knee_flexion_l/accel	/jointset/knee_l/knee_adduction_l/accel	/jointset/knee_l/knee_rotation_l/accel	/jointset/ankle_l/ankle_angle_l/accel	/jointset/subtalar_l/subtalar_angle_l/accel	gamma_cid13_p0	gamma_cid13_p1	gamma_cid13_p2	gamma_cid13_p3	gamma_cid13_p4	gamma_cid13_p5	gamma_cid14_p0
0.5	-0.09523191714377752	-0.0450035588142106	0.8090045298435526	0.9245499158443793	-0.3299305811484018	-0.08259023153062775	-0.7892499481717922	0.904239490573219	0.9042394905735177	-0.106906805799872	-0.174501315973736	0.1373186443557028	0.0088433554705268	-0.1316173299493532	-0.1664556337940998	-0.4061875746133955	1.582756058555937	-0.03209334898296976	0.5573902087410113	-0.8412414932610816	1.738693378244074	1.738693378244098	0.1406943085739134	0.0001637746434681021	0.4050903283714392	0.1007621766940412	-0.2703268342128676	0.003402071218095578	-0.004145278345712614	-0.2477696212583425	0.09165107310749129	0.05931914776809896	0.3270737586062771	-14.31638541815266	-25.37274712131732	6.009081709989793	-10.41666956294701	-702.237903599491	-89.36846654496235	-10.44739233888962	0.2759071043424671	0.6883727987365674	-0.1783588308376334	-1.51590952595842	0.3308862988217295	-0.4867499540594261	1.900205593816768	-1.384645492442257	-1.384645492442398	-0.2214693364769997	-0.0002987031171319803	-0.207210811117133	0.3447635716390983	-2.444118116333202e-07	-2.164133687179388e-07	1.383473125644626e-06	1.221545405587857e-07	-2.665685045534351e-07	-9.975826791403593e-08	-2.095252933661669e-07
0.51	-0.09653409294526166	-0.04663364914278972	0.8049346468081479	0.9402992467941645	-0.3302358247121396	-0.07703995075229529	-0.7975664424856951	0.9215544512764082	0.9215544512765742	-0.1055134324715538	-0.1744996889798763	0.1413581765243042	0.00986692636473336	-0.1287962690606866	-0.1595590085179146	-0.4076953799273686	1.566885977298255	-0.02896625853034593	0.5526005808108243	-0.8219670570479198	1.724048869654297	1.72404886965418	0.1379695675792438	0.0001566562041888018	0.4027494010373401	0.1039222881764468	-0.2765783122439309	0.003475554916424096	-0.004293575513609801	-0.2513019507045563	0.09078927869371575	0.05958397261537866	0.3333586171111448	-14.84513981364368	-25.36799549189719	5.977272885801281	-10.24163565153314	-706.7579775894143	-89.42252099751413	-9.747858728189057	0.2884168936420284	0.6908458632590981	-0.1229947368384152	-1.65621042790688	0.3018058672925381	-0.4850630915749568	1.954609505843157	-1.541796780956645	-1.541796780977678	-0.2995960059959048	-0.001392324090382919	-0.2575396876655183	0.2970449147089103	-2.294845043882671e-07	-1.497685999913977e-07	1.354823775292241e-06	1.24963114390342e-07	-2.470819036257069e-07	-5.845535628037236e-08	-1.979495129471068e-07
0.52	-0.09780741587535738	-0.04819466552436719	0.800852485048571	0.9558831463309261	-0.3305101602815889	-0.07153956502907916	-0.8056874830633107	0.9387154782459598	0.9387154782459879	-0.1041476304581975	-0.174498227952355	0.1453722982209431	0.0109211803693975	-0.1258467556714853	-0.1526408443937702	-0.4086433194477858	1.549669775951223	-0.02591175012533022	0.5474111977175748	-0.802150746003662	1.707906631516071	1.707906631515814	0.1351800455832168	0.0001305813746272231	0.4000082339788718	0.106898798785558	-0.2828297902749897	0.003549038614756281	-0.004441872681566883	-0.2548342801507666	0.089927484279942	0.05984879746266417	0.3396434756160154	-15.37580328053253	-25.36394027055638	5.946753607529874	-10.11124772990355	-711.3443579667731	-89.52904030928076	-9.049227111582635	0.3015976044494522	0.6926805683283948	-0.06638567212645023	-1.785133543828263	0.3163698893001047	-0.5667009866719123	2.008580560036013	-1.684191402132068	-1.684191402132096	-0.2344255367484651	-0.004089981173586167	-0.2872587559910376	0.3080433969802273	-2.145663718011327e-07	-9.918372028839164e-08	1.316211916804779e-06	1.252855686311521e-07	-2.286982442583741e-07	-2.139696766290368e-08	-1.870158661984785e-07
0.53	-0.09905067163027417	-0.0496864665022135	0.796763652485674	0.9712883779865326	-0.330754203291651	-0.06609302924975728	-0.8136077831270118	0.9557077558891555	0.9557077558892544	-0.1028098008808068	-0.1744970001516255	0.1493570858189311	0.01200442076310914	-0.1227872668488483	-0.145722750615189	-0.4090280662461334	1.531165289384485	-0.02290595267112102	0.5418276652888273	-0.7818344561912725	1.69030874068403	1.690308740683995	0.1323876956970739	0.0001134564439292528	0.3968861917817561	0.109722139274632	-0.2888316673361004	0.003627104037718335	-0.004548603824885852	-0.2584101888401434	0.089001211264254	0.05991387875268016	0.3456579511313951	-15.93082885305355	-25.25989637282449	5.8900412292312	-9.85598399097235	-715.8162131278752	-89.48247005758159	-8.353386657412305	0.3106734095152492	0.6908889575853507	-0.01029395931934158	-1.914822816938367	0.291139557479324	-0.5645893591926645	2.054374773672252	-1.833575134992965	-1.833575134959756	-0.3013574330105929	-0.0004951933495484736	-0.3341367190491897	0.2652679631844185	-2.041213300010745e-07	-9.383373770586672e-08	1.268873145763776e-06	1.200488812421847e-07	-2.15005709536416e-07	1.728178153493007e-09	-1.809142629514099e-07
0.54	-0.1002628227192964	-0.05110918350728162	0.7926738174996676	0.9865022214557032	-0.3309684973503708	-0.06070441079236714	-0.8213226759762224	0.9725168571817806	0.9725168571819522	-0.1014998383459715	-0.1744959378890679	0.1533087610414524	0.0131150522793742	-0.1196258224924298	-0.1388240498381349	-0.4088438040696919	1.511392138664071	-0.01996195985699165	0.5358277333314212	-0.7610693031056053	1.671271361401873	1.671271361402059	0.1296066370723958	9.747373996577379e-05	0.3933857588855458	0.1123770232962436	-0.2948335443972087	0.003705169460679203	-0.004655334968208624	-0.2619860975295195	0.0880749382485659	0.0599789600426948	0.3516724266467774	-16.48845462658192	-25.15609306481193	5.834163254950175	-9.642405114420308	-720.3609275468086	-89.48499885336321	-7.663994793185538	0.3219887112058073	0.6888019680229653	0.04741612283136065	-2.038866374563639	0.3040089612841411	-0.6499808924036197	2.098353214691531	-1.972089092155527	-1.972089092155456	-0.2321672844554819	-0.003861535826686144	-0.3629368958099941	0.2743521034877261	-1.986252397101218e-07	-1.385308753417471e-07	1.211879067216727e-06	1.086616541777187e-07	-2.065033552731705e-07	9.437821296363078e-09	-1.801587503869181e-07
0.55	-0.1014428656397937	-0.05246306925876148	0.7885886691715428	1.001512125254973	-0.3311537110421477	-0.05537801502604012	-0.828827875863111	0.9891285679234952	0.9891285679233897	-0.1002175272057869	-0.1744952310074139	0.157223602715573	0.014251340317006	-0.1163674080201929	-0.1319618434668526	-0.4080911914315949	1.490389571070131	-0.01709386224477641	0.5293895394592678	-0.7399147004684845	1.650846753108953	1.650846753109084	0.1268549013671257	4.357391369353856e-05	0.3895259352897847	0.1148500052503307	-0.3004955606771094	0.00372951747802728	-0.004723217575975967	-0.265634791687597	0.08717145138092937	0.05985741042418161	0.3573309440259596	-17.03559542203982	-24.96617303752438	5.756674766075739	-9.341179971302465	-724.6918934402677	-89.35655474683614	-7.002281387273548	0.3300520203071092	0.6836390103466743	0.1033439796975204	-2.16083391221502	0.2760924842991729	-0.6501833838713111	2.132409858803826	-2.111215823330892	-2.111215823339244	-0.2967940888627523	-0.005968079684478298	-0.406001383645225	0.2290719585561523	-1.88122628393276e-07	-1.372292396331471e-07	1.159718586255568e-06	1.025556563902909e-07	-1.935823391397853e-07	2.810793876423701e-08	-1.738199736851375e-07
0.5600000000000001	-0.1025898675745543	-0.05374859113879545	0.7845138789988786	1.016306026986222	-0.33131066729318	-0.05011789014828492	-0.8361198505095119	1.005529318757187	1.005529318756804	-0.09896275689771618	-0.1744950258987528	0.1610981468952991	0.01541141831761607	-0.1130176253449729	-0.1251512755489595	-0.4067721729775451	1.468191725059959	-0.01431047170820318	0.5225735556171106	-0.7184242550081006	1.629079379797205	1.62907937979728	0.1240984706498571	-2.880858857719183e-06	0.3853262600065816	0.1171350158918964	-0.3061575769570056	0.003753865495376333	-0.004791100183748029	-0.269283485845673	0.08626796451329327	0.05973586080566978	0.3629894614051453	-17.58504352807748	-24.77906885179296	5.683314048007396	-9.08555617819419	-729.086261702441	-89.27937777045415	-6.374278087046945	0.3402623518024626	0.6784742773450816	0.1606972860219199	-2.277922057809882	0.2870675461557419	-0.7255388864044012	2.165521779344177	-2.240642095921242	-2.240642095921202	-0.2331062868551554	-0.002372525082487155	-0.4309072332984057	0.236757840983445	-1.716121918453586e-07	-8.072907591117256e-08	1.113358422397478e-06	1.027871337353089e-07	-1.753589287622326e-07	5.993062542211514e-08	-1.607812800186106e-07
0.5700000000000001	-0.1037029533692056	-0.05496631778453234	0.7804551006411177	1.030872146862917	-0.3314401520017449	-0.04492771315125636	-0.8431953556188737	1.021705859742635	1.021705859742531	-0.09773547813630977	-0.1744951402605929	0.1649290869922486	0.01659349296031295	-0.1095851300123896	-0.1184075696264953	-0.4048892317216156	1.444841131685109	-0.01160455371838344	0.5154034445646787	-0.6966352534709255	1.606016552571876	1.606016552571952	0.1213510517143889	-2.280675404179956e-05	0.3808095889146262	0.1192439128044768	-0.3115523829188622	0.003767442982684042	-0.004819841195345277	-0.2729142277507353	0.08526599110502205	0.05944812900004004	0.3683489747981187	-18.16365493929642	-24.50869608101517	5.589835737489689	-8.716149617612533	-733.2856032137668	-89.07089690440843	-5.780421196207045	0.3468876423873627	0.6703119290326213	0.2161995631717294	-2.392316738887122	0.2594885499932565	-0.7216433368695548	2.191816349945245	-2.370912062724514	-2.370912062724544	-0.2964950190821399	-0.002007104536685486	-0.4698676233197029	0.1924357549995884	-1.547392160996162e-07	-2.667720510074996e-08	1.062671812853827e-06	1.023607955911885e-07	-1.571826953336117e-07	8.910895790966706e-08	-1.473704060812782e-07
